Coordinates
version=1
nRows=19
nColumns=36
inDegrees=yes

Units are S.I. units (second, meters, Newtons, ...)
If the header above contains a line with 'inDegrees', this indicates whether rotational values are in degrees (yes) or radians (no).

endheader
time	pelvis_tilt	pelvis_list	pelvis_rotation	pelvis_tx	pelvis_ty	pelvis_tz	hip_flexion_r	hip_adduction_r	hip_rotation_r	knee_angle_r	knee_angle_r_beta	ankle_angle_r	subtalar_angle_r	mtp_angle_r	hip_flexion_l	hip_adduction_l	hip_rotation_l	knee_angle_l	knee_angle_l_beta	ankle_angle_l	subtalar_angle_l	mtp_angle_l	lumbar_extension	lumbar_bending	lumbar_rotation	arm_flex_r	arm_add_r	arm_rot_r	elbow_flex_r	pro_sup_r	arm_flex_l	arm_add_l	arm_rot_l	elbow_flex_l	pro_sup_l
      1.20000000	    -27.17119854	      2.51801543	     -3.68398007	      0.70558116	      1.16902654	      0.02926133	     45.25153714	     -2.73785377	     -6.62413709	     33.72210127	      0.58856170	     22.92584271	      6.53565133	     -7.49999987	     44.32765845	     -0.12126526	     -1.83162245	     28.23427639	      0.49278109	     19.75600846	      2.97176722	     -7.49999987	    -15.52323058	     -0.39245867	     -4.76078502	    -22.48800864	    -24.12249998	     -7.99310072	     14.92940925	     93.76627309	    -34.72371214	    -13.38005604	    -69.64995751	     68.86316874	    109.84635358
      1.21666670	    -26.92402043	      2.59780054	     -3.75604241	      0.71067496	      1.16359565	      0.03431266	     44.87668059	     -2.77193920	     -6.97671185	     33.92938594	      0.59217950	     23.54368387	      6.59928468	     -7.49999987	     44.11816927	     -0.17140044	     -2.18227879	     28.94995371	      0.50527201	     20.13851177	      3.46329584	     -7.49999987	    -16.28362208	     -0.33899407	     -5.49767820	    -18.64391564	    -22.35751435	     -9.32871812	     13.93100695	     98.90165373	    -30.72436587	    -12.82940068	    -66.18358160	     63.42477236	    111.95265005
      1.23333330	    -25.86457405	      2.62271401	     -3.78836890	      0.72842456	      1.16204235	      0.03176964	     42.75059263	     -2.83008979	     -7.39023488	     32.95518365	      0.57517646	     23.95918705	      6.52731520	     -7.49999987	     42.16130044	     -0.05934116	     -2.50787693	     28.64409329	      0.49993374	     19.96732806	      3.78874650	     -7.49999987	    -17.29341168	      0.02175242	     -5.80940350	    -14.72416050	    -20.60951607	     -9.42059674	     12.93129409	     98.95777675	    -24.77654373	    -12.40389441	    -60.44134161	     52.03752525	    112.49334823
      1.25000000	    -24.97633123	      2.51198105	     -3.70750482	      0.72547667	      1.16394024	      0.03201042	     41.10572361	     -2.75958823	     -7.49043609	     32.24551995	      0.56279049	     24.06975228	      6.23459858	     -7.49999987	     40.75858563	     -0.12125456	     -2.77905692	     28.84218446	      0.50339108	     19.93584011	      4.36237147	     -7.49999987	    -18.90916743	      0.04989263	     -5.10344046	     -9.69951734	    -18.14955080	     -9.66877762	     10.83134626	     97.76149932	    -16.50338807	    -12.99578203	    -49.98506708	     37.69226683	    112.44046987
      1.26666670	    -23.90327486	      2.38302613	     -3.73422652	      0.73126461	      1.16127856	      0.03588236	     39.45048562	     -2.51967794	     -7.31106584	     31.91833547	      0.55708005	     24.34326468	      5.80661065	     -7.49999987	     39.46358186	     -0.31351927	     -2.97705821	     29.68909434	      0.51817245	     20.29706360	      4.65278531	     -7.49999987	    -21.35476587	     -0.23461793	     -3.40295540	     -5.89997992	    -15.84576361	     -9.38421606	     11.32432371	     91.96657722	     -8.46741261	    -15.51026313	    -31.51594554	     25.43311139	    107.87564940
      1.28333330	    -23.08490188	      2.12555246	     -3.78935803	      0.74204734	      1.16111839	      0.03836398	     37.98206729	     -2.16852808	     -7.09804518	     31.73190375	      0.55382620	     24.69751246	      5.42635952	     -7.49999987	     38.62851024	     -0.61950295	     -2.81162955	     31.02512337	      0.54149055	     20.99623229	      4.52400644	     -7.49999987	    -23.44267437	     -0.19923335	     -2.51776903	     -0.45819463	    -15.50906832	     -1.22574946	     14.17708800	     78.23802646	     -1.39581391	    -16.20441993	    -16.64278116	     23.07930279	     98.55432579
      1.30000000	    -22.71658078	      1.81122016	     -3.75723229	      0.74863815	      1.15440651	      0.04246339	     37.24703790	     -1.69097415	     -6.65953993	     32.22197335	      0.56237953	     25.27978563	      4.64671097	     -7.49999987	     38.66060337	     -1.08183643	     -2.62423001	     33.36603463	      0.58234716	     21.96804188	      4.32732058	     -7.49999987	    -24.81355609	     -0.00303417	     -1.58137599	      4.66441103	    -15.76853533	      1.73697675	     18.26995580	     75.41775433	      5.49847383	    -16.29760293	     -8.47702552	     24.54093496	     97.99384405
      1.31666670	    -22.00926283	      1.45307976	     -3.91783233	      0.76022940	      1.15389211	      0.04507783	     35.72837293	     -1.10176671	     -6.26114763	     32.32818506	      0.56423327	     25.72987938	      3.52294929	     -7.49999987	     38.23776157	     -1.66340999	     -2.54427432	     35.90200101	      0.62660813	     22.93860666	      3.94479444	     -7.49999987	    -25.92086108	      0.05298019	     -0.28732942	     10.46323253	    -16.89945208	      5.90382403	     23.32745169	     68.26602935	     12.86331346	    -16.22089862	      1.40876691	     25.84696807	     94.00584957
      1.33333330	    -22.53226508	      1.40286463	     -4.20771759	      0.76820143	      1.13558598	      0.04979735	     36.33042058	     -0.61308119	     -5.36796621	     33.95537812	      0.59263315	     26.57596371	      2.14413026	     -7.49999987	     39.52480646	     -2.01798862	     -2.10996064	     39.22082100	      0.68453246	     24.24716396	      2.69697559	     -7.49999987	    -24.35465212	     -0.08409709	      0.05053486	     15.14568648	    -16.87156455	      5.91431554	     27.86940385	     67.66309965	     17.38328516	    -16.26100036	      2.08548512	     30.86657810	     91.66960054
      1.35000000	    -23.29089615	      1.18679598	     -4.12169067	      0.77383094	      1.13928748	      0.04718630	     37.08706522	     -0.13099395	     -4.64014720	     35.22261107	      0.61475053	     27.15081131	      0.67558609	     -7.49999987	     40.86713722	     -2.57287426	     -2.10686490	     42.02536241	      0.73348094	     25.98848539	      3.51438454	     -7.49999987	    -22.44109003	     -0.10554426	      2.15161825	     21.08230306	    -18.68161558	      8.98357047	     31.91475034	     65.81704148	     25.48566228	    -16.39897319	     14.78089378	     33.96546654	     92.87150931
      1.36666670	    -24.29932205	      1.15469317	     -4.05815017	      0.75691794	      1.15210467	      0.04767088	     38.64570219	      0.18831698	     -3.85879895	     36.35501496	      0.63451471	     27.30132264	     -0.56226791	     -7.49999987	     42.69191863	     -2.87847851	     -1.87892473	     43.77338482	      0.76398969	     26.61556271	      3.43122363	     -7.49999987	    -21.00369231	     -0.52433259	      2.69086188	     32.05698537	    -18.59827500	     11.90362026	     32.64493638	     65.72910552	     35.49145726	    -16.39604998	     21.92299103	     37.92632606	     92.53964549
      1.38333330	    -23.89583129	      1.09009319	     -4.12376859	      0.77694869	      1.15316204	      0.04670741	     37.98682223	      0.48440593	     -3.33084932	     36.72566548	      0.64098378	     27.70362565	     -1.07354912	     -7.49999987	     42.02560339	     -2.87200490	     -1.54138339	     44.36872928	      0.77438041	     26.36223143	      2.63916354	     -7.49999987	    -20.82182795	     -0.89923041	      3.41236047	     38.22159179	    -19.67372331	     14.07846551	     39.36169522	     66.11711590	     42.55024639	    -16.21596540	     25.00451824	     45.90944744	     90.97970811
      1.40000000	    -23.72607036	      1.04503796	     -4.32861386	      0.77857181	      1.15377587	      0.04605082	     37.66947405	      0.72391684	     -3.10269831	     37.21788296	      0.64957460	     27.77748733	     -1.22195283	     -7.49999987	     41.65822793	     -2.83497256	     -1.19560272	     44.60617713	      0.77852466	     26.44652979	      2.40274987	     -7.49999987	    -20.04255866	     -1.35495405	      3.26263672	     46.95338705	    -18.89072030	     16.93833333	     45.31550296	     67.66548539	     51.52807389	    -17.22777049	     31.36999655	     53.64549835	     91.39112437
      1.41666670	    -23.50077554	      1.19342324	     -4.47910548	      0.79011575	      1.13677696	      0.04960372	     37.42043465	      0.76533250	     -2.77383792	     38.65158307	      0.67459739	     28.43869678	     -1.71424624	     -7.49999987	     41.03218319	     -2.70095769	     -1.20456061	     45.12171703	      0.78752253	     26.96376105	      2.26671559	     -7.49999987	    -18.25195459	     -2.00545191	      2.49299106	     54.99825531	    -18.70784474	     20.67882830	     53.25822363	     69.70600114	     59.52394918	    -18.94521911	     35.26663195	     62.25349424	     90.05713873
      1.43333330	    -22.79331876	      1.05491584	     -4.33799885	      0.79779559	      1.14823122	      0.04502529	     35.81808907	      0.86445364	     -2.86385659	     38.40373934	      0.67027170	     28.57325455	     -1.98861516	     -7.49999987	     39.45764852	     -2.53656951	     -0.92045736	     44.56928874	      0.77788083	     26.86567578	      2.01241412	     -7.49999987	    -17.56127203	     -1.66534201	      1.55598462	     62.68672690	    -17.38314270	     23.74732061	     58.42126293	     85.26837693	     64.98475921	    -22.22627760	     37.94799771	     70.46819782	     89.09511027
      1.45000000	    -21.57771994	      1.05929913	     -4.38478204	      0.82223232	      1.14482722	      0.04148818	     33.04303607	      0.86038344	     -2.77831018	     37.72100086	      0.65835566	     28.64573191	     -2.22649988	     -7.49999987	     36.53743295	     -2.08074859	     -0.68985190	     43.34654654	      0.75653996	     26.56438359	      1.53970391	     -7.49999987	    -17.07410529	     -1.68245453	      1.62385100	     67.78180274	    -18.87072894	     25.37692760	     64.25534126	     86.24841709	     71.07029508	    -21.31700787	     36.79726610	     74.42487758	     89.50496417
      1.46666670	    -19.94271492	      0.96689558	     -4.23351527	      0.84258499	      1.15326434	      0.04731988	     28.93455508	      0.80341560	     -3.06251928	     35.81177193	      0.62503333	     28.10574481	     -2.55382012	     -7.49999987	     32.56497335	     -1.64427269	     -0.47673840	     41.17645379	      0.71866469	     25.95896798	      1.61373357	     -7.49999987	    -17.57256469	     -1.83056184	      2.29653710	     74.09387019	    -21.65802653	     28.51103780	     69.89714861	     87.48086461	     77.24942629	    -21.87981898	     37.79246775	     78.51556060	     90.19374590
      1.48333330	    -18.52709073	      0.83670602	     -3.94345105	      0.85521911	      1.15719069	      0.04994849	     24.90276347	      0.89876428	     -2.96535854	     33.24722586	      0.58027356	     27.00064192	     -3.73147645	     -7.49999987	     28.82654599	     -1.39225956	     -0.29007021	     39.08077753	      0.68208824	     25.20926024	      1.78013833	     -7.49999987	    -18.16021446	     -2.28136868	      1.19227100	     80.13362222	    -22.90785168	     29.18529588	     75.94772566	     88.15354854	     84.08799793	    -25.04415149	     37.72430891	     84.72966190	     90.11434400
      1.50000000	    -17.46341778	      0.67768334	     -3.62270535	      0.86920158	      1.16260819	      0.05846685	     21.26341788	      1.15574141	     -2.95771317	     30.50718709	      0.53245086	     25.91458019	     -4.73847322	     -7.49999987	     25.87696013	     -1.39952991	     -0.03225825	     37.63974000	      0.65693739	     24.77882365	      2.08203761	     -7.49999987	    -17.55007611	     -2.09986436	     -1.02259442	     86.44400736	    -19.32319674	     29.54641027	     76.66021468	     90.94166963	     88.71450249	    -29.44659281	     36.13011794	     89.45694246	     88.73640201
